<svg width="227" height="31" viewBox="0 0 227 31" fill="none" xmlns="http://www.w3.org/2000/svg">
<path d="M18.3512 7.98869H11.0509C9.035 7.98869 7.40077 9.62292 7.40077 11.6388V18.9391C7.40077 20.9551 9.035 22.5893 11.0509 22.5893H18.3512C20.3671 22.5893 22.0014 20.9551 22.0014 18.9391V11.6388C22.0014 9.62292 20.3671 7.98869 18.3512 7.98869Z" stroke="#EFE9E1" stroke-width="0.875991" stroke-linecap="round" stroke-linejoin="round"/>
<path d="M17.6208 14.8289C17.7109 15.4364 17.6071 16.0569 17.3242 16.6021C17.0413 17.1473 16.5937 17.5894 16.0451 17.8655C15.4965 18.1417 14.8747 18.2378 14.2683 18.1402C13.6619 18.0426 13.1017 17.7563 12.6674 17.322C12.2331 16.8877 11.9468 16.3275 11.8492 15.7211C11.7516 15.1147 11.8478 14.493 12.1239 13.9443C12.4 13.3957 12.8422 12.9481 13.3873 12.6652C13.9325 12.3823 14.553 12.2786 15.1606 12.3687C15.7803 12.4606 16.3541 12.7493 16.7971 13.1923C17.2401 13.6354 17.5289 14.2091 17.6208 14.8289Z" stroke="#EFE9E1" stroke-width="0.875991" stroke-linecap="round" stroke-linejoin="round"/>
<path d="M18.7158 11.274H18.7231" stroke="#EFE9E1" stroke-width="0.875991" stroke-linecap="round" stroke-linejoin="round"/>
<circle cx="14.9948" cy="14.9948" r="14.7008" stroke="#EFE9E1" stroke-width="0.588001"/>
<circle cx="212.005" cy="14.9948" r="14.7008" stroke="#EFE9E1" stroke-width="0.588001"/>
<path d="M213.683 10.6764C214.337 10.8039 214.939 11.1234 215.411 11.5942C215.882 12.0649 216.202 12.6655 216.33 13.3189M213.683 8.00041C215.043 8.15123 216.311 8.75917 217.279 9.72441C218.248 10.6896 218.858 11.9548 219.011 13.3122M218.341 18.6507V20.6577C218.342 20.844 218.304 21.0285 218.229 21.1992C218.154 21.3699 218.044 21.5231 217.907 21.6491C217.769 21.775 217.607 21.8709 217.43 21.9306C217.253 21.9903 217.066 22.0125 216.88 21.9957C214.817 21.772 212.836 21.0686 211.095 19.9419C209.476 18.9148 208.103 17.5444 207.074 15.928C205.941 14.1827 205.236 12.1957 205.016 10.1278C204.999 9.94281 205.021 9.75635 205.081 9.58032C205.14 9.40428 205.236 9.24252 205.361 9.10533C205.487 8.96814 205.639 8.85853 205.809 8.78348C205.98 8.70843 206.164 8.66958 206.35 8.6694H208.361C208.686 8.66621 209.001 8.78118 209.248 8.99288C209.495 9.20459 209.656 9.49858 209.701 9.82007C209.786 10.4623 209.943 11.093 210.17 11.6999C210.261 11.9394 210.28 12.1996 210.227 12.4498C210.173 12.7 210.049 12.9296 209.869 13.1115L209.018 13.9611C209.972 15.636 211.361 17.0227 213.039 17.9751L213.89 17.1255C214.073 16.9456 214.303 16.8216 214.553 16.7683C214.804 16.7149 215.065 16.7344 215.305 16.8244C215.913 17.0509 216.545 17.208 217.188 17.2927C217.514 17.3385 217.811 17.5022 218.024 17.7526C218.236 18.003 218.349 18.3227 218.341 18.6507Z" stroke="#EFE9E1" stroke-width="0.9" stroke-linecap="round" stroke-linejoin="round"/>
<circle cx="113" cy="15.9948" r="14.7008" stroke="#EFE9E1" stroke-width="0.588001"/>
<path d="M113.006 19.3342C114.847 19.3342 116.34 17.8417 116.34 16.0007C116.34 14.1596 114.847 12.6672 113.006 12.6672C111.165 12.6672 109.673 14.1596 109.673 16.0007C109.673 17.8417 111.165 19.3342 113.006 19.3342Z" stroke="#EFE9E1" stroke-width="0.9" stroke-linecap="round" stroke-linejoin="round"/>
<path d="M116.34 12.6671V16.834C116.34 17.4971 116.603 18.133 117.072 18.6019C117.541 19.0707 118.177 19.3341 118.84 19.3341C119.503 19.3341 120.139 19.0707 120.608 18.6019C121.077 18.133 121.34 17.4971 121.34 16.834V16.0006C121.34 14.1197 120.703 12.2942 119.534 10.8208C118.365 9.34745 116.732 8.31293 114.9 7.88546C113.068 7.458 111.146 7.66274 109.445 8.46638C107.745 9.27003 106.366 10.6253 105.533 12.3119C104.701 13.9984 104.463 15.9171 104.859 17.7558C105.255 19.5946 106.262 21.2453 107.715 22.4395C109.168 23.6338 110.982 24.3014 112.863 24.3337C114.744 24.366 116.58 23.7612 118.073 22.6176" stroke="#EFE9E1" stroke-width="0.9" stroke-linecap="round" stroke-linejoin="round"/>
</svg>